All The Episodes of BECK: Mongolian Chop Squad( Complete Ep 1-26) at 480p Video Quality :)

Please seed after you download.

--------------------------------------------------------------------------------

Cover
--------------------------------------------------------------------------------
    
http://img12.imageshack.us/img12/6117/beckcursator.jpg
--------------------------------------------------------------------------------

Info
---------------------------------------------------------------------------------

General
--------

Format                                   : MPEG-4
Format profile                           : Base Media
Codec ID                                 : isom
File size                                : 52.1 MiB
Duration                                 : 24mn 44s
Overall bit rate mode                    : Variable
Overall bit rate                         : 294 Kbps

Video
------

ID                                       : 1
Format                                   : AVC
Format/Info                              : Advanced Video Codec
Format profile                           : High@L5.1
Format settings, CABAC                   : Yes
Format settings, ReFrames                : 5 frames
Codec ID                                 : avc1
Codec ID/Info                            : Advanced Video Coding
Duration                                 : 24mn 44s
Bit rate mode                            : Variable
Bit rate                                 : 260 Kbps
Maximum bit rate                         : 1 643 Kbps
Width                                    : 512 pixels
Height                                   : 384 pixels
Display aspect ratio                     : 4:3
Frame rate mode                          : Constant
Frame rate                               : 23.976 fps
Color space                              : YUV
Chroma subsampling                       : 4:2:0
Bit depth                                : 8 bits
Scan type                                : Progressive
Bits/(Pixel*Frame)                       : 0.055
Stream size                              : 45.9 MiB (88%)
Writing library                          : x264 core 54 svn-636M

Audio
------

ID                                       : 2
Format                                   : AAC
Format/Info                              : Advanced Audio Codec
Format profile                           : HE-AACv2 / HE-AAC / LC
Codec ID                                 : 40
Duration                                 : 24mn 44s
Bit rate mode                            : Variable
Bit rate                                 : 32.0 Kbps
Maximum bit rate                         : 35.5 Kbps
Channel(s)                               : 2 channels / 1 channel / 1 channel
Channel positions                        : Front: L R / Front: C / Front: C
Sampling rate                            : 44.1 KHz / 44.1 KHz / 22.05 KHz
Compression mode                         : Lossy
Stream size                              : 5.66 MiB (11%)

----------------------------------------------------------------------------------

Screenshots
----------------------------------------------------------------------------------
          
http://img23.imageshack.us/img23/6959/beck01.png
          
http://img405.imageshack.us/img405/5844/beck02.png
          
http://img577.imageshack.us/img577/8255/beck03.png
          
http://img577.imageshack.us/img577/5489/beck04.png
          
http://img20.imageshack.us/img20/3152/beck05.png
   
http://img31.imageshack.us/img31/5403/beck06.png


----------------------------------------------------------------------------------

Story
----------------------------------------------------------------------------------

Tanaka Yukio, better known by his nickname Koyuki is a 14 year old who feels disconnected from life in general. Through the act of saving a mismatched dog, he meets guitarist Minami Ryuusuke, and becomes involved in Ryuusuke's new band BECK. Koyuki's life starts to change as the band struggles towards fame.

----------------------------------------------------------------------------------

Thank you for downloading. 

Enjoy Watching :)				
				